<?xml version="1.0" encoding="iso-8859-1"?>
<!-- Generator: Adobe Illustrator 19.0.0, SVG Export Plug-In . SVG Version: 6.00 Build 0)  -->
<svg version="1.1" transform="scale(1 -1)" id="Layer_1" xmlns="http://www.w3.org/2000/svg" xmlns:xlink="http://www.w3.org/1999/xlink" x="0px" y="0px"
	 viewBox="0 0 511.999 511.999" style="enable-background:new 0 0 511.999 511.999;" xml:space="preserve">
<polygon style="fill:#298983;" points="256.002,223.181 196.996,282.187 196.996,490.445 315.005,490.445 315.005,282.187 "/>
<rect x="83.82" y="142.927" transform="matrix(-0.7071 -0.7071 0.7071 -0.7071 86.5415 480.6941)" style="fill:#A5F2E5;" width="118.012" height="158.993"/>
<path style="fill:#62D9C7;" d="M364.938,134.747L256.2,26.008l-83.444,83.444L383.67,320.367l83.446-83.444l-47.569-47.569
	c-4.209-4.209-4.209-11.031,0-15.24l0,0l-39.366-39.366C375.971,138.955,369.147,138.955,364.938,134.747z"/>
<path d="M489.974,229.303l-55.19-55.189c-4.209-4.209-11.033-4.209-15.24,0l0,0c-4.209,4.209-4.209,11.033,0,15.24l47.569,47.569
	l-83.446,83.444L172.754,109.454l83.444-83.444l108.738,108.738c4.209,4.209,11.033,4.209,15.24,0l0,0
	c4.209-4.209,4.209-11.033,0-15.24L263.82,3.149c-2.154-2.155-4.995-3.199-7.818-3.147c-2.824-0.052-5.664,0.993-7.818,3.147
	L22.028,229.303c-2.022,2.02-3.157,4.762-3.157,7.62s1.135,5.6,3.157,7.62l98.686,98.686c2.104,2.105,4.863,3.157,7.62,3.157
	c2.757,0,5.516-1.052,7.62-3.157l39.488-39.489v197.483c0,5.952,4.825,10.777,10.777,10.777h139.563
	c5.952,0,10.777-4.825,10.777-10.777V303.74l39.488,39.489c2.104,2.105,4.863,3.157,7.62,3.157c2.757,0,5.516-1.052,7.62-3.157
	l98.686-98.686c2.022-2.02,3.157-4.762,3.157-7.62C493.131,234.065,491.996,231.323,489.974,229.303z M196.996,490.445V282.187
	L256,223.181l59.004,59.005v208.259H196.996z M157.316,124.496l83.444,83.444L128.334,320.367l-83.446-83.444L157.316,124.496z"/>
</svg>
